<!DOCTYPE svg PUBLIC "-//W3C//DTD SVG 1.1//EN" "http://www.w3.org/Graphics/SVG/1.1/DTD/svg11.dtd">
<!-- Uploaded to: SVG Repo, www.svgrepo.com, Transformed by: SVG Repo Mixer Tools -->
<svg fill="rgb(112, 199, 69)" height="800px" width="800px" version="1.1" id="Capa_1" xmlns="http://www.w3.org/2000/svg" xmlns:xlink="http://www.w3.org/1999/xlink" viewBox="0 0 490.00 490.00" xml:space="preserve" stroke="rgb(112, 199, 69)" stroke-width="0.0049">
<g id="SVGRepo_bgCarrier" stroke-width="0"/>
<g id="SVGRepo_tracerCarrier" stroke-linecap="round" stroke-linejoin="round"/>
<g id="SVGRepo_iconCarrier"> <g> <g> <g> <g> <path d="M409.9,257.926H79.1c-43.7,0-79.1-35.4-79.1-79.1v-145.6c0-11.4,9.4-20.8,20.8-20.8h448.4c11.4,0,20.8,9.4,20.8,20.8 v145.6C489,222.526,453.6,257.926,409.9,257.926z M40.6,54.026v124.8c0,20.8,17.7,38.5,38.5,38.5h330.8 c20.8,0,38.5-17.7,38.5-38.5v-124.8H40.6z"/> </g> <g> <path d="M386,169.526H103c-11.4,0-20.8-9.4-20.8-20.8s9.3-20.8,20.8-20.8h283c11.4,0,20.8,9.4,20.8,20.8 S397.4,169.526,386,169.526z"/> </g> <g> <g> <path d="M119.6,477.426c-11.4-2.1-17.7-13.5-15.6-23.9c5.2-22.9,0-34.3-6.2-48.9c-7.3-17.7-16.6-40.6,0-74.9 c5.2-10.4,16.6-14.6,27-9.4s14.6,16.6,9.4,27c-8.3,17.7-5.2,26,1,41.6c6.2,16.6,15.6,38.5,8.3,73.9 C141.5,471.226,133.6,478.326,119.6,477.426z"/> </g> <g> <path d="M246.6,477.426c-11.4-2.1-17.7-13.5-15.6-23.9c5.2-22.9,0-34.3-6.2-48.9c-7.3-17.7-16.6-40.6,0-74.9 c5.2-10.4,16.6-14.6,27-9.4c10.4,5.2,14.6,16.6,9.4,27c-8.3,17.7-5.2,26,1,41.6c6.2,16.6,15.6,38.5,8.3,73.9 C268.4,471.226,259.7,478.726,246.6,477.426z"/> </g> <g> <path d="M373.5,477.426c-11.4-2.1-17.7-13.5-15.6-23.9c5.2-22.9,0-34.3-6.2-48.9c-7.3-17.7-16.6-40.6,0-74.9 c5.2-10.4,16.6-14.6,27-9.4s14.6,16.6,9.4,27c-8.3,17.7-5.2,26,1,41.6c6.2,16.6,15.6,38.5,8.3,73.9 C395.3,471.226,386.9,478.526,373.5,477.426z"/> </g> </g> </g> </g> </g> </g>
</svg>