<?xml version="1.0" standalone="no"?>
<!DOCTYPE svg PUBLIC "-//W3C//DTD SVG 20010904//EN"
 "http://www.w3.org/TR/2001/REC-SVG-20010904/DTD/svg10.dtd">
<svg version="1.0" xmlns="http://www.w3.org/2000/svg"
 viewBox="0 0 2600.000000 2600.000000"
 preserveAspectRatio="xMidYMid meet">
<metadata>
Created by potrace 1.15, written by Peter Selinger 2001-2017
</metadata>
<g transform="translate(0.000000,2600.000000) scale(0.100000,-0.100000)"
fill="#000000" stroke="none">
<path d="M3290 21858 c0 -503 23 -1523 50 -2268 99 -2661 299 -4471 590 -5343
85 -254 169 -409 270 -500 94 -85 -337 -77 4217 -77 l4063 0 0 -57 c0 -107 50
-240 129 -343 37 -49 41 -60 37 -95 -23 -178 -13 -358 30 -555 28 -127 93
-329 129 -401 33 -63 112 -148 207 -219 78 -59 296 -193 395 -243 l51 -26 61
-193 c144 -449 826 -2522 2640 -8018 l487 -1475 318 -3 317 -2 -7 22 c-3 13
-467 1420 -1031 3128 -563 1708 -1028 3119 -1033 3135 l-9 30 29 -35 c346
-420 801 -1017 1460 -1915 891 -1213 1186 -1595 1439 -1858 l99 -102 -14 -125
c-36 -337 -87 -1437 -96 -2085 l-3 -190 2913 -3 2912 -2 0 24 c0 44 39 117
172 320 339 516 451 865 435 1356 -22 656 -206 1669 -409 2247 -109 312 -204
467 -338 548 -110 67 -161 168 -264 530 -109 384 -163 511 -267 629 -49 55
-144 121 -189 131 -17 4 -30 8 -30 11 0 2 23 32 50 66 65 80 130 191 179 305
48 110 117 323 133 410 l12 64 85 48 c47 26 186 99 309 160 338 171 431 240
500 368 65 122 101 351 109 698 12 514 -64 928 -234 1270 -105 210 -205 328
-477 563 -424 366 -600 484 -802 537 -101 26 -260 37 -360 25 -479 -60 -1316
-401 -1570 -642 l-53 -50 -48 11 c-26 6 -201 47 -388 90 -449 105 -645 146
-787 167 -123 17 -168 14 -168 -12 0 -21 280 -298 467 -462 227 -199 451 -362
531 -387 23 -7 23 -7 -11 -30 -35 -24 -67 -69 -131 -187 -20 -36 -51 -81 -69
-98 -68 -67 -311 -214 -438 -265 -37 -14 -77 -38 -90 -51 -21 -23 -24 -35 -23
-107 0 -61 7 -101 26 -153 16 -46 22 -77 17 -87 -5 -8 -45 -45 -89 -82 -45
-37 -87 -80 -95 -96 -19 -36 -19 -89 -1 -115 14 -20 12 -23 -28 -51 -70 -50
-94 -128 -60 -196 9 -18 35 -51 58 -75 39 -41 41 -45 40 -105 0 -49 -12 -91
-52 -200 -64 -171 -79 -245 -62 -307 21 -79 101 -143 480 -385 118 -75 228
-149 244 -163 52 -49 69 -103 74 -242 l5 -126 -47 -46 c-59 -60 -98 -72 -200
-65 -93 6 -116 12 -446 112 -135 40 -283 85 -330 99 -128 38 -199 85 -336 221
-138 138 -267 296 -479 590 -409 566 -448 611 -623 710 -236 133 -392 264
-629 528 -190 211 -302 288 -504 346 -160 47 -177 69 -407 526 -225 445 -347
629 -562 845 -69 69 -168 156 -220 193 -115 81 -292 174 -417 217 l-92 32 -6
42 c-10 63 -117 376 -176 516 -106 252 -253 518 -356 645 -43 53 -149 147
-223 197 -24 16 246 17 4596 17 4070 1 4626 3 4671 16 433 129 744 1780 903
4790 51 987 84 2032 96 3113 l7 592 -10631 0 -10632 0 0 -322z m20190 -1453
l0 -105 -9560 0 -9560 0 0 105 0 105 9560 0 9560 0 0 -105z m0 -710 l0 -105
-9560 0 -9560 0 0 105 0 105 9560 0 9560 0 0 -105z m0 -710 l0 -105 -9560 0
-9560 0 0 105 0 105 9560 0 9560 0 0 -105z m0 -705 l0 -100 -9560 0 -9560 0 0
100 0 100 9560 0 9560 0 0 -100z m0 -705 l0 -105 -9560 0 -9560 0 0 105 0 105
9560 0 9560 0 0 -105z m0 -710 l0 -105 -9560 0 -9560 0 0 105 0 105 9560 0
9560 0 0 -105z m-12693 -1792 c357 -210 979 -600 1348 -846 l190 -127 -3880 2
-3879 3 -103 510 c-56 281 -102 518 -103 528 0 16 156 17 3140 17 l3139 0 148
-87z m12693 73 c0 -12 -189 -955 -205 -1023 l-5 -23 -4844 0 -4843 0 -94 75
c-187 151 -305 176 -325 70 l-6 -35 -62 57 c-113 106 -429 318 -991 667 -148
93 -290 181 -315 197 l-45 29 5868 0 c5067 0 5867 -2 5867 -14z"/>
</g>
</svg>
